<svg xmlns="http://www.w3.org/2000/svg" xmlns:xlink="http://www.w3.org/1999/xlink" width="263" height="246" viewBox="0 0 263 246">
  <defs>
    <clipPath id="clip-path">
      <rect id="Rectangle_149525" data-name="Rectangle 149525" width="263" height="246" rx="20" transform="translate(165 385)" fill="#fff"/>
    </clipPath>
  </defs>
  <g id="Mask_Group_164173" data-name="Mask Group 164173" transform="translate(-165 -385)" clip-path="url(#clip-path)">
    <g id="undraw_mail_re_duel_1_" data-name="undraw_mail_re_duel (1)" transform="translate(148.902 388)">
      <g id="Tab" transform="translate(6.778 9.367)">
        <path id="Path_41940" data-name="Path 41940" d="M351.093,416.858H490.32a12.461,12.461,0,0,0,12.447-12.447V202.5a12.461,12.461,0,0,0-12.447-12.447H351.093A12.461,12.461,0,0,0,338.646,202.5v201.91a12.461,12.461,0,0,0,12.447,12.447Z" transform="translate(-269.455 -190.055)"/>
        <path id="Path_41941" data-name="Path 41941" d="M361.657,419.179H501.374a3.841,3.841,0,0,0,3.837-3.837V212.095a3.841,3.841,0,0,0-3.837-3.837H361.657a3.841,3.841,0,0,0-3.837,3.837V415.342a3.841,3.841,0,0,0,3.837,3.837Z" transform="translate(-280.264 -200.316)" fill="#fff"/>
        <ellipse id="Ellipse_1686" data-name="Ellipse 1686" cx="1.059" cy="1.059" rx="1.059" ry="1.059" transform="translate(150.722 2.753)" fill="#fff"/>
      </g>
      <g id="Group_181012" data-name="Group 181012" transform="translate(-354.902 -1253)">
        <g id="Group_181068" data-name="Group 181068" transform="translate(459.963 1344.824) rotate(-9)">
          <g id="Group_181038" data-name="Group 181038" transform="translate(0.444 15.529)">
            <path id="Path_49957" data-name="Path 49957" d="M0,12.362.029,85.183h74.43L73.839.4,11.643,0Z" fill="#fff"/>
          </g>
          <g id="Group_181039" data-name="Group 181039" transform="translate(0 15.083)">
            <path id="Path_49958" data-name="Path 49958" d="M74.653,86.072H.471a.443.443,0,0,1-.443-.443L0,12.808a.444.444,0,0,1,.12-.3L11.764.142A.4.4,0,0,1,12.089,0l62.2.4a.444.444,0,0,1,.44.442l.37,84.783a.445.445,0,0,1-.444.446ZM.915,85.185H74.208l-.366-83.9L12.277.891.886,12.983Z"/>
          </g>
          <g id="Group_181040" data-name="Group 181040" transform="translate(0 15.086)">
            <path id="Path_49959" data-name="Path 49959" d="M.443,13.249a.443.443,0,0,1-.017-.886l11.858-.454L11.644.468a.443.443,0,1,1,.885-.05l.666,11.89a.444.444,0,0,1-.426.468L.461,13.249Z"/>
          </g>
          <path id="Path_49972" data-name="Path 49972" d="M.442,11.963A.44.44,0,0,1,0,11.548,7.293,7.293,0,0,1,.3,9.654a.443.443,0,0,1,.854.239,6.494,6.494,0,0,0-.266,1.623.447.447,0,0,1-.431.447ZM16.391,9a.443.443,0,0,1-.134-.866,1.416,1.416,0,0,0,.874-.945.444.444,0,0,1,.853.244,2.307,2.307,0,0,1-1.458,1.546A.447.447,0,0,1,16.391,9ZM1.363,8.564a.444.444,0,0,1-.4-.641,10.394,10.394,0,0,1,.97-1.574.443.443,0,1,1,.711.53,9.5,9.5,0,0,0-.888,1.44A.444.444,0,0,1,1.363,8.564ZM14.794,8.5a.443.443,0,0,1-.323-.139,3.006,3.006,0,0,1-.392-.525,3.554,3.554,0,0,1-.454-1.3A.443.443,0,1,1,14.5,6.4a2.676,2.676,0,0,0,.341.979,2.119,2.119,0,0,0,.275.368.443.443,0,0,1-.323.747ZM36.818,8.27a.442.442,0,0,1-.349-.17c-.357-.455-.737-.9-1.129-1.317a.443.443,0,1,1,.648-.606c.408.438.805.9,1.178,1.375a.444.444,0,0,1-.349.717ZM17.429,6.02a.443.443,0,0,1-.415-.288,3.95,3.95,0,0,0-.218-.479,2.886,2.886,0,0,0-.647-.791.444.444,0,0,1,.586-.666,3.754,3.754,0,0,1,.843,1.038,4.818,4.818,0,0,1,.267.589.443.443,0,0,1-.261.57A.433.433,0,0,1,17.429,6.02ZM3.467,5.732a.443.443,0,0,1-.306-.764A12.393,12.393,0,0,1,4.579,3.8a.443.443,0,0,1,.512.724A11.564,11.564,0,0,0,3.774,5.609.443.443,0,0,1,3.467,5.732ZM34.4,5.684a.442.442,0,0,1-.3-.114c-.429-.385-.88-.754-1.341-1.1a.443.443,0,0,1,.53-.711c.482.359.954.746,1.4,1.148a.444.444,0,0,1-.3.774ZM14.22,5.159a.432.432,0,0,1-.132-.021.443.443,0,0,1-.291-.555,5.092,5.092,0,0,1,.528-1.154,9.86,9.86,0,0,0-1.171-.353.443.443,0,0,1,.2-.863,10.37,10.37,0,0,1,1.61.518.443.443,0,0,1,.432.716,4.177,4.177,0,0,0-.757,1.4A.444.444,0,0,1,14.22,5.159ZM6.347,3.684a.444.444,0,0,1-.208-.836q.327-.173.678-.338a5.843,5.843,0,0,1,1.057-.369A.443.443,0,1,1,8.091,3a5.048,5.048,0,0,0-.9.312q-.331.156-.641.32A.448.448,0,0,1,6.347,3.684Zm25.211-.117a.441.441,0,0,1-.231-.065c-.492-.3-1-.582-1.517-.835a.444.444,0,1,1,.391-.8c.539.265,1.073.559,1.588.875a.443.443,0,0,1-.232.821ZM11.508,2.8a12.505,12.505,0,0,0-1.749-.039.443.443,0,1,1-.046-.886,12.883,12.883,0,0,1,1.835.04.443.443,0,0,1-.04.885Zm4.882-.356a.443.443,0,0,1-.241-.816A8.9,8.9,0,0,1,17.819.8a.443.443,0,0,1,.314.829,8.009,8.009,0,0,0-1.5.744A.443.443,0,0,1,16.39,2.448Zm11.99-.442a.437.437,0,0,1-.157-.029c-.541-.205-1.095-.385-1.645-.535A.443.443,0,1,1,26.81.587c.578.156,1.158.346,1.727.561a.443.443,0,0,1-.157.858Zm-8.705-.85a.443.443,0,0,1-.1-.876A12.425,12.425,0,0,1,21.4.016.443.443,0,0,1,21.459.9a11.539,11.539,0,0,0-1.688.245A.429.429,0,0,1,19.674,1.156Zm5.288-.077A17.476,17.476,0,0,0,23.177.887.443.443,0,0,1,23.223,0a16.511,16.511,0,0,1,1.81.2.443.443,0,0,1-.071.88Z" transform="matrix(0.616, 0.788, -0.788, 0.616, 70.68, -7.582)"/>
          <g id="Group_181067" data-name="Group 181067" transform="translate(18.948 47.761)">
            <g id="Group_181065" data-name="Group 181065" transform="translate(0 0)">
              <g id="Group_181060" data-name="Group 181060" transform="translate(10.01 0)">
                <path id="Path_49974" data-name="Path 49974" d="M23.9,6.757h-16A4,4,0,0,1,5.314,5.574,3.637,3.637,0,0,1,2.788,6.757,3.075,3.075,0,0,1,.037,4.971.443.443,0,0,1,.85,4.618,2.189,2.189,0,0,0,2.788,5.87a2.816,2.816,0,0,0,1.927-.949,4.762,4.762,0,0,1-.434-.661A3.583,3.583,0,0,1,4.087,1.5,2.233,2.233,0,0,1,5.276.131,1.483,1.483,0,0,1,7.095.6a2.346,2.346,0,0,1,.022,2.132A8.946,8.946,0,0,1,5.9,4.909a3.226,3.226,0,0,0,2.006.96h16a.443.443,0,0,1,0,.887ZM5.918.886a.769.769,0,0,0-.3.061,1.377,1.377,0,0,0-.7.845,2.7,2.7,0,0,0,.139,2.049A3.736,3.736,0,0,0,5.3,4.23a8.127,8.127,0,0,0,.987-1.819A1.527,1.527,0,0,0,6.361,1.1.518.518,0,0,0,5.918.886Z"/>
              </g>
              <g id="Group_181062" data-name="Group 181062" transform="translate(0 1.005)">
                <g id="Group_181061" data-name="Group 181061">
                  <path id="Path_49975" data-name="Path 49975" d="M6.161,4.646A3.029,3.029,0,0,0,5.484.75,3.4,3.4,0,0,0,.06,2.542,3.335,3.335,0,0,0,2.363,6.3,3.431,3.431,0,0,0,6.161,4.646Z" fill="#aab6c1"/>
                </g>
              </g>
              <g id="Group_181064" data-name="Group 181064" transform="translate(0 15.366)">
                <g id="Group_181063" data-name="Group 181063">
                  <path id="Path_49976" data-name="Path 49976" d="M6.161,4.646A3.029,3.029,0,0,0,5.484.75,3.4,3.4,0,0,0,.06,2.543,3.335,3.335,0,0,0,2.363,6.3,3.431,3.431,0,0,0,6.161,4.646Z" fill="#aab6c1"/>
                </g>
              </g>
            </g>
            <g id="Group_181066" data-name="Group 181066" transform="translate(10.01 18.129)">
              <path id="Path_49977" data-name="Path 49977" d="M23.9.887H.443A.443.443,0,0,1,.443,0H23.9a.443.443,0,1,1,0,.887Z"/>
            </g>
          </g>
        </g>
        <path id="Path_49978" data-name="Path 49978" d="M68.156,18.337,68.556,0,100.3,1.155l-.6,72.559H0V18.337Z" transform="translate(468.361 1397.584)" fill="#8c3ba5"/>
        <g id="Group_181071" data-name="Group 181071" transform="translate(468.231 1266.367) rotate(68)">
          <g id="Group_181085" data-name="Group 181085" transform="translate(0.451 0.477)">
            <path id="Path_49991" data-name="Path 49991" d="M6245.712,228.68c-18.744-21.047-21.806-28.8-16.789-33.662,5.755-5.582,13.859.159,21.388,6.112.268-19.08,4.176-26.415,10.527-27.41,6.713-1.052,7.776,4.974,7.776,4.974,2.394-7.166,9.721-17.748,17.673-14.4,6.705,2.822,4.776,12.157,3.316,15.476,13.954-9.163,24.835-11.843,29.1-6.163,4.464,5.951,1.139,10.908-9.12,17.969-8.538,5.875-16.709,11.022-14.822,16.461,1.968,5.672,4.239,9.011,12.278,5.03,14.609-7.232,25.6-9.81,29.265-.521,3.1,7.846-5.2,14.394-15.187,19.058-6.351,2.966-4.727,11.3-13.076,15.777v23.167h-62.324Z" transform="translate(-6226.775 -163.654)" fill="#fff"/>
          </g>
          <g id="Group_181086" data-name="Group 181086" transform="translate(0 0)">
            <path id="Path_49992" data-name="Path 49992" d="M6245.453,270.783h62.324a.475.475,0,0,0,.475-.475V247.422c4.366-2.435,6.022-5.947,7.488-9.052,1.329-2.818,2.478-5.251,5.315-6.576,12.81-5.981,18.146-12.78,15.428-19.663a9.242,9.242,0,0,0-5.3-5.564c-4.994-1.923-12.586-.124-24.619,5.833-3.289,1.628-5.734,2.072-7.476,1.36-1.954-.8-3.069-3.025-4.143-6.12-1.651-4.757,5.163-9.422,13.052-14.823q.79-.542,1.59-1.091c7.247-4.987,10.589-8.643,11.175-12.224a8.259,8.259,0,0,0-1.943-6.421c-4.186-5.579-14.545-3.651-28.526,5.268.9-2.8,1.5-7.067.179-10.376a7.629,7.629,0,0,0-4.262-4.357,8.479,8.479,0,0,0-7.033.184c-4.791,2.169-8.806,8.116-10.8,13.21-.8-1.834-2.877-4.779-7.871-4-7.075,1.109-10.552,9.668-10.912,26.914-7.65-5.987-15.512-11.063-21.26-5.488-5.522,5.357-1.324,13.989,16.645,34.184v41.685A.476.476,0,0,0,6245.453,270.783Zm61.849-.95h-61.373v-41.39a.478.478,0,0,0-.12-.316c-19.809-22.241-21.192-28.758-16.815-33,5.39-5.228,12.9-.078,20.763,6.144a.475.475,0,0,0,.77-.366c.244-17.341,3.461-25.9,10.126-26.948,6.16-.963,7.194,4.361,7.235,4.588a.475.475,0,0,0,.918.067c1.718-5.145,5.819-11.7,10.765-13.941a7.564,7.564,0,0,1,6.271-.174,6.705,6.705,0,0,1,3.748,3.833c1.451,3.642.388,8.582-.681,11.014a.474.474,0,0,0,.7.588c14.119-9.272,24.49-11.559,28.455-6.274a7.361,7.361,0,0,1,1.765,5.7c-.54,3.3-3.762,6.768-10.776,11.594q-.8.549-1.588,1.089c-8.211,5.622-15.3,10.476-13.413,15.919,1.159,3.339,2.4,5.753,4.682,6.688,2.037.834,4.662.393,8.257-1.388,11.615-5.751,19.195-7.593,23.856-5.8a8.227,8.227,0,0,1,4.756,5.026c3.161,8.008-6.383,14.455-14.945,18.453-3.148,1.47-4.424,4.171-5.773,7.032-1.5,3.179-3.051,6.465-7.328,8.756a.478.478,0,0,0-.251.419Z" transform="translate(-6226.065 -162.939)"/>
          </g>
          <g id="Group_181087" data-name="Group 181087" transform="translate(44.358 16.115)">
            <path id="Path_49993" data-name="Path 49993" d="M6297.483,215.9a.476.476,0,0,0,.473-.431c1.679-17.75,18.045-27.4,18.211-27.5a.476.476,0,0,0-.477-.823c-.169.1-16.955,10-18.681,28.232a.476.476,0,0,0,.429.518A.349.349,0,0,0,6297.483,215.9Z" transform="translate(-6297.007 -187.081)"/>
          </g>
          <g id="Group_181088" data-name="Group 181088" transform="translate(31.526 15.041)">
            <path id="Path_49994" data-name="Path 49994" d="M6328.928,217.694a.475.475,0,0,0,.468-.4c2.67-16.15,10.169-30.983,10.245-31.131a.475.475,0,0,0-.847-.432c-.076.15-7.642,15.115-10.335,31.408a.475.475,0,0,0,.391.546A.442.442,0,0,0,6328.928,217.694Z" transform="translate(-6328.452 -185.473)"/>
          </g>
          <g id="Group_181089" data-name="Group 181089" transform="translate(22.909 37.477)">
            <path id="Path_49995" data-name="Path 49995" d="M6356.35,236.446a.475.475,0,0,0,.474-.458l.6-16.41a.474.474,0,0,0-.458-.492.467.467,0,0,0-.492.458l-.6,16.41a.475.475,0,0,0,.458.493Z" transform="translate(-6355.874 -219.085)"/>
          </g>
          <g id="Group_181090" data-name="Group 181090" transform="translate(72.261 9.951)">
            <path id="Path_49996" data-name="Path 49996" d="M6262.31,184.816c6.091,0,11.352-5.919,11.58-6.179a.475.475,0,1,0-.714-.627c-.055.062-5.541,6.234-11.419,5.837-2.844-.19-5.355-1.9-7.467-5.07a.475.475,0,0,0-.791.527c2.284,3.434,5.043,5.282,8.2,5.491C6261.9,184.809,6262.106,184.816,6262.31,184.816Z" transform="translate(-6253.418 -177.848)"/>
          </g>
          <g id="Group_181091" data-name="Group 181091" transform="translate(43.15 1.045)">
            <path id="Path_49997" data-name="Path 49997" d="M6306.458,177.2a10.577,10.577,0,0,0,5.275-1.348c5.54-3.121,7.048-10.469,7.108-10.78a.475.475,0,1,0-.931-.185c-.015.072-1.49,7.238-6.648,10.139-2.749,1.546-6.075,1.624-9.889.233a.475.475,0,1,0-.326.892A15.837,15.837,0,0,0,6306.458,177.2Z" transform="translate(-6300.734 -164.505)"/>
          </g>
          <g id="Group_181092" data-name="Group 181092" transform="translate(96.507 50.495)">
            <path id="Path_49998" data-name="Path 49998" d="M6227.154,255.73a.49.49,0,0,0,.47-.552c-.925-5.623-.1-9.816,2.463-12.461,3.752-3.881,10.06-3.111,10.124-3.1a.475.475,0,0,0,.124-.943c-.277-.036-6.835-.845-10.926,3.378-2.783,2.874-3.7,7.342-2.723,13.281A.476.476,0,0,0,6227.154,255.73Z" transform="translate(-6226.308 -238.588)"/>
          </g>
          <g id="Group_181093" data-name="Group 181093" transform="translate(24.264 10.003)">
            <path id="Path_49999" data-name="Path 49999" d="M6338.384,194.951c5.119-.749,8.582-2.709,10.362-5.829,2.766-4.847.449-10.657.35-10.9a.475.475,0,0,0-.881.358c.023.056,2.241,5.638-.3,10.077-1.629,2.85-4.859,4.65-9.6,5.349a.475.475,0,0,0,.069.945Z" transform="translate(-6337.91 -177.925)"/>
          </g>
          <g id="Group_181094" data-name="Group 181094" transform="translate(2.627 30.912)">
            <path id="Path_50000" data-name="Path 50000" d="M6381.138,228.459a.476.476,0,0,0,.357-.161c2.576-2.913,3.681-5.969,3.285-9.084-.74-5.824-6.42-9.721-6.662-9.884a.475.475,0,0,0-.532.788c.056.037,5.569,3.827,6.252,9.221.357,2.83-.671,5.632-3.056,8.33a.476.476,0,0,0,.356.79Z" transform="translate(-6377.376 -209.249)"/>
          </g>
          <g id="Group_181095" data-name="Group 181095" transform="translate(19.389 88.152)">
            <path id="Path_50001" data-name="Path 50001" d="M6270.1,295l62.324,9.608v9.608H6270.1Z" transform="translate(-6270.104 -295.003)"/>
          </g>
        </g>
        <g id="Group_1060" data-name="Group 1060" transform="translate(546.527 1370.983)">
          <path id="Path_948" data-name="Path 948" d="M4417.931,1013.165l2.817-6.15,7.744-1.577-7.629-3.035s2.326-7.227,2.409-7.16-5.578,4.793-5.578,4.793l-6.293-3.274,1.58,4.95-6.622,3.464,8.925,1.689Z" transform="translate(-4406.358 -995.243)" fill="#aab6c1"/>
        </g>
        <path id="Path_949" data-name="Path 949" d="M4351.043,1158.112l-8.712.919-3.219-6.966-.739,6.983-7.691-1.557,6.416,5.49-4.031,7.428,6.415-3.895,8.41,4.912-4.269-8.842Z" transform="translate(-3834.9 165.383)" fill="#8c3ba5"/>
      </g>
    </g>
  </g>
</svg>
